<?xml version="1.0" standalone="no"?>
<!DOCTYPE svg PUBLIC "-//W3C//DTD SVG 20010904//EN"
 "http://www.w3.org/TR/2001/REC-SVG-20010904/DTD/svg10.dtd">
<svg version="1.0" xmlns="http://www.w3.org/2000/svg"
 width="512.000000pt" height="512.000000pt" viewBox="0 0 512.000000 512.000000"
 preserveAspectRatio="xMidYMid meet">
<metadata>
Created by potrace 1.14, written by Peter Selinger 2001-2017
</metadata>
<g transform="translate(0.000000,512.000000) scale(0.100000,-0.100000)"
fill="#000000" stroke="none">
<path d="M2410 4514 c-14 -2 -65 -9 -115 -15 -344 -43 -708 -204 -990 -441
-365 -306 -597 -716 -682 -1203 -24 -139 -24 -471 0 -610 85 -487 317 -897
682 -1203 275 -230 591 -375 960 -439 139 -24 471 -24 610 0 369 64 685 209
960 439 365 306 597 716 682 1203 24 139 24 471 0 610 -149 859 -785 1497
-1637 1640 -90 15 -416 29 -470 19z m406 -589 c174 -31 310 -81 434 -160 384
-246 595 -531 671 -905 44 -213 34 -658 -17 -821 -111 -355 -428 -674 -909
-915 -122 -61 -127 -63 -85 -28 86 71 237 233 301 323 126 179 222 393 265
591 23 107 23 279 0 355 -30 98 -128 179 -154 128 -5 -10 -12 -67 -16 -128 -9
-142 -29 -231 -75 -330 -84 -181 -252 -335 -500 -460 -136 -68 -270 -97 -446
-96 -319 1 -654 134 -867 345 -180 178 -251 380 -251 711 0 189 11 259 68 432
66 198 164 359 314 516 238 249 520 395 871 450 68 11 315 6 396 -8z"/>
</g>
</svg>
